<svg xmlns="http://www.w3.org/2000/svg" viewBox="0 8.699999809265137 72.8499984741211 49.04999923706055" data-asc="0.946" width="72.8499984741211" height="49.04999923706055"><defs/><g fill="#000000"><g transform="translate(0, 0)"><path d="M26.65 40.80Q26.40 35.85 26.28 31.30Q26.15 26.75 26.08 23.25Q26.00 19.75 25.98 17.65Q25.95 15.55 25.95 15.50Q25.70 12.45 22.80 11.30Q23.30 11.35 23.78 11.35Q24.25 11.35 24.75 11.35Q27.00 11.35 28.88 11.12Q30.75 10.90 32.30 10.65Q33.85 10.40 35.13 10.17Q36.40 9.95 37.50 9.95Q38.10 9.95 38.65 10.10Q35.65 12.25 34.02 14.77Q32.40 17.30 32.40 20.45Q32.40 24.15 34.85 28.85Q33.70 31.75 32.98 35.10Q32.25 38.45 32.25 41.80Q32.25 43.25 32.38 45.13Q32.50 47 32.85 48.80Q34.35 50.40 35.52 51.30Q36.70 52.20 37.65 52.65Q38.60 53.10 39.42 53.25Q40.25 53.40 41.05 53.50L39.75 50.20Q41.45 51.15 43.15 52Q44.85 52.85 46.65 53.50Q48.45 54.15 50.42 54.52Q52.40 54.90 54.65 54.90Q56.15 54.90 57.77 54.80Q59.40 54.70 61.20 54.45Q56.80 56.20 52.92 56.97Q49.05 57.75 45.60 57.75Q41.20 57.75 37.48 56.50Q33.75 55.25 30.58 53.13Q27.40 51 24.78 48.22Q22.15 45.45 19.98 42.38Q17.80 39.30 16.07 36.15Q14.35 33 13.00 30.15L13.00 35.25Q13.00 38.35 13.20 40.45Q13.40 42.55 13.85 44.10Q14.30 45.65 15.00 46.82Q15.70 48 16.70 49.20Q15.60 48.90 14.78 48.60Q13.95 48.30 13.18 47.90Q12.40 47.50 11.58 46.90Q10.75 46.30 9.65 45.40Q8.30 47.80 6.05 49.55Q3.80 51.30 0 52.55Q1.50 51.10 2.80 49.27Q4.10 47.45 5.08 45.38Q6.05 43.30 6.63 41.10Q7.20 38.90 7.20 36.65Q7.20 34.55 6.67 32.60Q6.15 30.65 4.95 28.85Q7.40 24.15 7.40 20.45Q7.40 17.30 5.78 14.77Q4.15 12.25 1.15 10.10Q1.65 9.95 2.30 9.95Q3.30 9.95 4.58 10.17Q5.85 10.40 7.38 10.65Q8.90 10.90 10.68 11.12Q12.45 11.35 14.50 11.35Q15.00 11.35 15.48 11.35Q15.95 11.35 16.45 11.30Q13.75 12.35 13.35 15.00Q14.25 17.25 15.53 20.20Q16.80 23.15 18.38 26.40Q19.95 29.65 21.80 32.97Q23.65 36.30 25.65 39.30L26.65 40.80ZM38.05 14.75Q40.20 13.90 41.95 12.45Q43.70 11.00 45 9.35Q47.30 10.10 48.95 10.55Q50.60 11.00 52 11.25Q53.40 11.50 54.78 11.57Q56.15 11.65 57.90 11.65Q57.40 10.80 57.20 10.12Q57 9.45 56.95 8.70Q60.25 10.80 63.50 11.52Q66.75 12.25 69.60 12.25Q70.50 12.25 71.30 12.17Q72.10 12.10 72.85 12.00Q71.65 13.10 69.95 14.07Q68.25 15.05 66.38 15.80Q64.50 16.55 62.55 17.00Q60.60 17.45 58.95 17.45Q57.80 17.45 56.40 17.40Q55 17.35 53.85 17.25Q53.75 18.00 53.73 18.80Q53.70 19.60 53.70 20.45L53.70 26.20Q54.70 26.40 55.95 26.40Q57.10 26.40 58.30 25.87Q59.50 25.35 60.65 24.70Q62.05 25.65 63.55 26.70Q65.05 27.75 66.75 28.75Q65.30 29.60 63.70 30.75Q62.10 31.90 60.70 32.90Q59.65 32.20 58.48 31.75Q57.30 31.30 56.15 31.30Q54.95 31.30 53.75 31.65Q53.80 33.55 53.78 35.72Q53.75 37.90 54.05 39.92Q54.35 41.95 55.10 43.67Q55.85 45.40 57.40 46.35Q55.25 47.35 54.13 48.55Q53 49.75 51.90 51.20Q51.05 49.75 49.08 48.47Q47.10 47.20 44.85 46.35Q45.35 45.60 45.73 44.63Q46.10 43.65 46.35 42.52Q46.60 41.40 46.73 40.22Q46.85 39.05 46.85 37.90Q46.85 35.35 46.28 33.15Q45.70 30.95 44.65 29.85Q45.95 28.05 46.48 25.12Q47 22.20 47 19.00Q47 18.30 46.98 17.57Q46.95 16.85 46.90 16.15Q45.10 15.60 43.43 15.12Q41.75 14.65 40.55 14.65Q39.85 14.65 39.28 14.72Q38.70 14.80 38.10 14.90L38.05 14.75Z"/></g></g></svg>